# Wavefront OBJ file automatically generated by Tiled2Unity

# Vertices (Count = 166)
v -46 -21 0
v -47 -21 0
v -47 -20 0
v -46 -20 0
v -45 -21 0
v -45 -20 0
v -44 -21 0
v -44 -20 0
v -43 -21 0
v -43 -20 0
v -42 -21 0
v -42 -20 0
v -41 -21 0
v -41 -20 0
v -40 -21 0
v -40 -20 0
v -39 -21 0
v -39 -20 0
v -38 -21 0
v -38 -20 0
v -37 -21 0
v -37 -20 0
v -36 -21 0
v -36 -20 0
v -35 -21 0
v -35 -20 0
v -46 -22 0
v -47 -22 0
v -45 -22 0
v -44 -22 0
v -43 -22 0
v -42 -22 0
v -41 -22 0
v -40 -22 0
v -39 -22 0
v -38 -22 0
v -37 -22 0
v -36 -22 0
v -35 -22 0
v -46 -23 0
v -47 -23 0
v -45 -23 0
v -44 -23 0
v -43 -23 0
v -42 -23 0
v -41 -23 0
v -40 -23 0
v -39 -23 0
v -38 -23 0
v -37 -23 0
v -36 -23 0
v -35 -23 0
v -46 -24 0
v -47 -24 0
v -45 -24 0
v -44 -24 0
v -43 -24 0
v -42 -24 0
v -41 -24 0
v -40 -24 0
v -39 -24 0
v -38 -24 0
v -37 -24 0
v -36 -24 0
v -35 -24 0
v -46 -25 0
v -47 -25 0
v -45 -25 0
v -44 -25 0
v -43 -25 0
v -42 -25 0
v -41 -25 0
v -40 -25 0
v -39 -25 0
v -38 -25 0
v -37 -25 0
v -36 -25 0
v -35 -25 0
v -46 -26 0
v -47 -26 0
v -45 -26 0
v -44 -26 0
v -43 -26 0
v -42 -26 0
v -41 -26 0
v -40 -26 0
v -39 -26 0
v -38 -26 0
v -37 -26 0
v -36 -26 0
v -35 -26 0
v -46 -27 0
v -47 -27 0
v -45 -27 0
v -44 -27 0
v -43 -27 0
v -42 -27 0
v -41 -27 0
v -40 -27 0
v -39 -27 0
v -38 -27 0
v -37 -27 0
v -36 -27 0
v -35 -27 0
v -46 -28 0
v -47 -28 0
v -45 -28 0
v -44 -28 0
v -43 -28 0
v -42 -28 0
v -41 -28 0
v -40 -28 0
v -39 -28 0
v -38 -28 0
v -37 -28 0
v -36 -28 0
v -35 -28 0
v -46 -29 0
v -47 -29 0
v -45 -29 0
v -44 -29 0
v -43 -29 0
v -42 -29 0
v -41 -29 0
v -40 -29 0
v -39 -29 0
v -38 -29 0
v -37 -29 0
v -36 -29 0
v -35 -29 0
v -46 -30 0
v -47 -30 0
v -45 -30 0
v -44 -30 0
v -43 -30 0
v -42 -30 0
v -41 -30 0
v -40 -30 0
v -39 -30 0
v -38 -30 0
v -37 -30 0
v -36 -30 0
v -35 -30 0
v -46 -31 0
v -47 -31 0
v -45 -31 0
v -44 -31 0
v -43 -31 0
v -42 -31 0
v -41 -31 0
v -40 -31 0
v -39 -31 0
v -38 -31 0
v -37 -31 0
v -36 -31 0
v -35 -31 0
v -41 -32 0
v -42 -32 0
v -40 -32 0
v -43 -32 0
v -39 -32 0
v -42 -33 0
v -43 -33 0
v -41 -33 0
v -40 -33 0
v -39 -33 0

# Texture cooridinates (Count = 192)
vt 0.2985557 0.5817528
vt 0.3150806 0.5817528
vt 0.3150806 0.6121635
vt 0.2985557 0.6121635
vt 0.2458698 0.5817528
vt 0.2623947 0.5817528
vt 0.2623947 0.6121635
vt 0.2458698 0.6121635
vt 0.2809938 0.5817528
vt 0.2975186 0.5817528
vt 0.2975186 0.6121635
vt 0.2809938 0.6121635
vt 0.2634318 0.5494334
vt 0.2799567 0.5494334
vt 0.2799567 0.5798442
vt 0.2634318 0.5798442
vt 0.1404979 0.9695855
vt 0.1570228 0.9695855
vt 0.1570228 0.9999963
vt 0.1404979 0.9999963
vt 0.08781193 0.9372661
vt 0.1043368 0.9372661
vt 0.1043368 0.9676769
vt 0.08781193 0.9676769
vt 0.08781193 0.9695855
vt 0.1043368 0.9695855
vt 0.1043368 0.9999963
vt 0.08781193 0.9999963
vt 0.2283078 0.517114
vt 0.2448327 0.517114
vt 0.2448327 0.5475248
vt 0.2283078 0.5475248
vt 0.07024995 0.9695855
vt 0.08677484 0.9695855
vt 0.08677484 0.9999963
vt 0.07024995 0.9999963
vt 0.05268797 0.9695855
vt 0.06921286 0.9695855
vt 0.06921286 0.9999963
vt 0.05268797 0.9999963
vt 0.03512599 0.9695855
vt 0.05165087 0.9695855
vt 0.05165087 0.9999963
vt 0.03512599 0.9999963
vt 0.5092995 0.5494334
vt 0.5258244 0.5494334
vt 0.5258244 0.5798442
vt 0.5092995 0.5798442
vt 0.07024995 0.9372661
vt 0.08677484 0.9372661
vt 0.08677484 0.9676769
vt 0.07024995 0.9676769
vt 0.05268797 0.9372661
vt 0.06921286 0.9372661
vt 0.06921286 0.9676769
vt 0.05268797 0.9676769
vt 0.03512599 0.9372661
vt 0.05165087 0.9372661
vt 0.05165087 0.9676769
vt 0.03512599 0.9676769
vt 0.07024995 0.9049467
vt 0.08677484 0.9049467
vt 0.08677484 0.9353575
vt 0.07024995 0.9353575
vt 0.05268797 0.9049467
vt 0.06921286 0.9049467
vt 0.06921286 0.9353575
vt 0.05268797 0.9353575
vt 0.03512599 0.9049467
vt 0.05165087 0.9049467
vt 0.05165087 0.9353575
vt 0.03512599 0.9353575
vt 0.4741756 0.517114
vt 0.4907005 0.517114
vt 0.4907005 0.5475248
vt 0.4741756 0.5475248
vt 0.8956632 0.8726273
vt 0.9121881 0.8726273
vt 0.9121881 0.9030381
vt 0.8956632 0.9030381
vt 0.8956632 0.6787109
vt 0.9121881 0.6787109
vt 0.9121881 0.7091218
vt 0.8956632 0.7091218
vt 0.9132252 0.6463915
vt 0.92975 0.6463915
vt 0.92975 0.6768024
vt 0.9132252 0.6768024
vt 0.9132252 0.6787109
vt 0.92975 0.6787109
vt 0.92975 0.7091218
vt 0.9132252 0.7091218
vt 0.9307871 0.6140721
vt 0.9473121 0.6140721
vt 0.9473121 0.644483
vt 0.9307871 0.644483
vt 0.07024995 0.7756691
vt 0.08677484 0.7756691
vt 0.08677484 0.8060799
vt 0.07024995 0.8060799
vt 0.05268797 0.7756691
vt 0.06921286 0.7756691
vt 0.06921286 0.8060799
vt 0.05268797 0.8060799
vt 0.03512599 0.7756691
vt 0.05165087 0.7756691
vt 0.05165087 0.8060799
vt 0.03512599 0.8060799
vt 0.08781193 0.6140721
vt 0.1043368 0.6140721
vt 0.1043368 0.644483
vt 0.08781193 0.644483
vt 0.7200434 0.2262394
vt 0.7365682 0.2262394
vt 0.7365682 0.2566503
vt 0.7200434 0.2566503
vt 0.07024995 0.7433497
vt 0.08677484 0.7433497
vt 0.08677484 0.7737606
vt 0.07024995 0.7737606
vt 0.017564 0.6787109
vt 0.03408889 0.6787109
vt 0.03408889 0.7091218
vt 0.017564 0.7091218
vt 2.017691E-06 0.6787109
vt 0.01652691 0.6787109
vt 0.01652691 0.7091218
vt 2.017691E-06 0.7091218
vt 0.03512599 0.7433497
vt 0.05165087 0.7433497
vt 0.05165087 0.7737606
vt 0.03512599 0.7737606
vt 0.1404979 0.5817528
vt 0.1570228 0.5817528
vt 0.1570228 0.6121635
vt 0.1404979 0.6121635
vt 0.017564 0.6463915
vt 0.03408889 0.6463915
vt 0.03408889 0.6768024
vt 0.017564 0.6768024
vt 2.017691E-06 0.6463915
vt 0.01652691 0.6463915
vt 0.01652691 0.6768024
vt 2.017691E-06 0.6768024
vt 0.07024995 0.7110304
vt 0.08677484 0.7110304
vt 0.08677484 0.7414411
vt 0.07024995 0.7414411
vt 0.05268797 0.7110304
vt 0.06921286 0.7110304
vt 0.06921286 0.7414411
vt 0.05268797 0.7414411
vt 0.03512599 0.7110304
vt 0.05165087 0.7110304
vt 0.05165087 0.7414411
vt 0.03512599 0.7414411
vt 0.3688037 0.8403079
vt 0.3853286 0.8403079
vt 0.3853286 0.8707187
vt 0.3688037 0.8707187
vt 0.6673574 0.6463915
vt 0.6838823 0.6463915
vt 0.6838823 0.6768024
vt 0.6673574 0.6768024
vt 0.6497954 0.6787109
vt 0.6663203 0.6787109
vt 0.6663203 0.7091218
vt 0.6497954 0.7091218
vt 0.8605392 0.1939201
vt 0.8770641 0.1939201
vt 0.8770641 0.2243309
vt 0.8605392 0.2243309
vt 0.9132252 0.1939201
vt 0.92975 0.1939201
vt 0.92975 0.2243309
vt 0.9132252 0.2243309
vt 0.8429772 0.1939201
vt 0.8595021 0.1939201
vt 0.8595021 0.2243309
vt 0.8429772 0.2243309
vt 0.8956632 0.2262394
vt 0.9121881 0.2262394
vt 0.9121881 0.2566503
vt 0.8956632 0.2566503
vt 0.8781012 0.2262394
vt 0.8946261 0.2262394
vt 0.8946261 0.2566503
vt 0.8781012 0.2566503
vt 6.103516E-05 0.500061
vt 0.499939 0.500061
vt 0.499939 0.999939
vt 6.103516E-05 0.999939

# Normal
vn 0 0 -1

# Groups (Count = 4)

g mesh_0001
f 1/1/1 2/2/1 3/3/1 4/4/1
f 5/5/1 1/6/1 4/7/1 6/8/1
f 7/5/1 5/6/1 6/7/1 8/8/1
f 9/5/1 7/6/1 8/7/1 10/8/1
f 11/5/1 9/6/1 10/7/1 12/8/1
f 13/5/1 11/6/1 12/7/1 14/8/1
f 15/5/1 13/6/1 14/7/1 16/8/1
f 17/5/1 15/6/1 16/7/1 18/8/1
f 19/5/1 17/6/1 18/7/1 20/8/1
f 21/5/1 19/6/1 20/7/1 22/8/1
f 23/5/1 21/6/1 22/7/1 24/8/1
f 25/9/1 23/10/1 24/11/1 26/12/1
f 27/13/1 28/14/1 2/15/1 1/16/1
f 29/17/1 27/18/1 1/19/1 5/20/1
f 30/17/1 29/18/1 5/19/1 7/20/1
f 31/17/1 30/18/1 7/19/1 9/20/1
f 32/17/1 31/18/1 9/19/1 11/20/1
f 33/17/1 32/18/1 11/19/1 13/20/1
f 34/17/1 33/18/1 13/19/1 15/20/1
f 35/17/1 34/18/1 15/19/1 17/20/1
f 36/17/1 35/18/1 17/19/1 19/20/1
f 37/17/1 36/18/1 19/19/1 21/20/1
f 38/17/1 37/18/1 21/19/1 23/20/1
f 39/13/1 38/14/1 23/15/1 25/16/1
f 40/13/1 41/14/1 28/15/1 27/16/1
f 42/17/1 40/18/1 27/19/1 29/20/1
f 43/17/1 42/18/1 29/19/1 30/20/1
f 44/17/1 43/18/1 30/19/1 31/20/1
f 45/17/1 44/18/1 31/19/1 32/20/1
f 46/17/1 45/18/1 32/19/1 33/20/1
f 47/17/1 46/18/1 33/19/1 34/20/1
f 48/17/1 47/18/1 34/19/1 35/20/1
f 49/17/1 48/18/1 35/19/1 36/20/1
f 50/17/1 49/18/1 36/19/1 37/20/1
f 51/17/1 50/18/1 37/19/1 38/20/1
f 52/13/1 51/14/1 38/15/1 39/16/1
f 53/13/1 54/14/1 41/15/1 40/16/1
f 55/17/1 53/18/1 40/19/1 42/20/1
f 56/17/1 55/18/1 42/19/1 43/20/1
f 57/17/1 56/18/1 43/19/1 44/20/1
f 58/17/1 57/18/1 44/19/1 45/20/1
f 59/17/1 58/18/1 45/19/1 46/20/1
f 60/17/1 59/18/1 46/19/1 47/20/1
f 61/17/1 60/18/1 47/19/1 48/20/1
f 62/17/1 61/18/1 48/19/1 49/20/1
f 63/17/1 62/18/1 49/19/1 50/20/1
f 64/17/1 63/18/1 50/19/1 51/20/1
f 65/13/1 64/14/1 51/15/1 52/16/1
f 66/13/1 67/14/1 54/15/1 53/16/1
f 68/21/1 66/22/1 53/23/1 55/24/1
f 69/21/1 68/22/1 55/23/1 56/24/1
f 70/21/1 69/22/1 56/23/1 57/24/1
f 71/21/1 70/22/1 57/23/1 58/24/1
f 72/21/1 71/22/1 58/23/1 59/24/1
f 73/21/1 72/22/1 59/23/1 60/24/1
f 74/21/1 73/22/1 60/23/1 61/24/1
f 75/21/1 74/22/1 61/23/1 62/24/1
f 76/21/1 75/22/1 62/23/1 63/24/1
f 77/21/1 76/22/1 63/23/1 64/24/1
f 78/13/1 77/14/1 64/15/1 65/16/1
f 79/13/1 80/14/1 67/15/1 66/16/1
f 81/21/1 79/22/1 66/23/1 68/24/1
f 82/21/1 81/22/1 68/23/1 69/24/1
f 83/21/1 82/22/1 69/23/1 70/24/1
f 84/21/1 83/22/1 70/23/1 71/24/1
f 85/21/1 84/22/1 71/23/1 72/24/1
f 86/21/1 85/22/1 72/23/1 73/24/1
f 87/21/1 86/22/1 73/23/1 74/24/1
f 88/21/1 87/22/1 74/23/1 75/24/1
f 89/21/1 88/22/1 75/23/1 76/24/1
f 90/21/1 89/22/1 76/23/1 77/24/1
f 91/13/1 90/14/1 77/15/1 78/16/1
f 92/13/1 93/14/1 80/15/1 79/16/1
f 94/25/1 92/26/1 79/27/1 81/28/1
f 95/25/1 94/26/1 81/27/1 82/28/1
f 96/25/1 95/26/1 82/27/1 83/28/1
f 97/21/1 96/22/1 83/23/1 84/24/1
f 98/21/1 97/22/1 84/23/1 85/24/1
f 99/21/1 98/22/1 85/23/1 86/24/1
f 100/21/1 99/22/1 86/23/1 87/24/1
f 101/21/1 100/22/1 87/23/1 88/24/1
f 102/21/1 101/22/1 88/23/1 89/24/1
f 103/25/1 102/26/1 89/27/1 90/28/1
f 104/13/1 103/14/1 90/15/1 91/16/1
f 105/29/1 106/30/1 93/31/1 92/32/1
f 107/25/1 105/26/1 92/27/1 94/28/1
f 108/25/1 107/26/1 94/27/1 95/28/1
f 109/21/1 108/22/1 95/23/1 96/24/1
f 110/21/1 109/22/1 96/23/1 97/24/1
f 111/21/1 110/22/1 97/23/1 98/24/1
f 112/25/1 111/26/1 98/27/1 99/28/1
f 113/33/1 112/34/1 99/35/1 100/36/1
f 114/37/1 113/38/1 100/39/1 101/40/1
f 115/41/1 114/42/1 101/43/1 102/44/1
f 116/21/1 115/22/1 102/23/1 103/24/1
f 117/29/1 116/30/1 103/31/1 104/32/1
f 118/45/1 119/46/1 106/47/1 105/48/1
f 120/25/1 118/26/1 105/27/1 107/28/1
f 121/25/1 120/26/1 107/27/1 108/28/1
f 122/21/1 121/22/1 108/23/1 109/24/1
f 123/21/1 122/22/1 109/23/1 110/24/1
f 124/25/1 123/26/1 110/27/1 111/28/1
f 125/25/1 124/26/1 111/27/1 112/28/1
f 126/49/1 125/50/1 112/51/1 113/52/1
f 127/53/1 126/54/1 113/55/1 114/56/1
f 128/57/1 127/58/1 114/59/1 115/60/1
f 129/25/1 128/26/1 115/27/1 116/28/1
f 130/45/1 129/46/1 116/47/1 117/48/1
f 131/45/1 132/46/1 119/47/1 118/48/1
f 133/21/1 131/22/1 118/23/1 120/24/1
f 134/21/1 133/22/1 120/23/1 121/24/1
f 135/21/1 134/22/1 121/23/1 122/24/1
f 136/25/1 135/26/1 122/27/1 123/28/1
f 137/25/1 136/26/1 123/27/1 124/28/1
f 138/21/1 137/22/1 124/23/1 125/24/1
f 139/61/1 138/62/1 125/63/1 126/64/1
f 140/65/1 139/66/1 126/67/1 127/68/1
f 141/69/1 140/70/1 127/71/1 128/72/1
f 142/25/1 141/26/1 128/27/1 129/28/1
f 143/45/1 142/46/1 129/47/1 130/48/1
f 144/73/1 145/74/1 132/75/1 131/76/1
f 146/25/1 144/26/1 131/27/1 133/28/1
f 147/25/1 146/26/1 133/27/1 134/28/1
f 148/21/1 147/22/1 134/23/1 135/24/1
f 149/21/1 148/22/1 135/23/1 136/24/1
f 150/21/1 149/22/1 136/23/1 137/24/1
f 151/25/1 150/26/1 137/27/1 138/28/1
f 152/21/1 151/22/1 138/23/1 139/24/1
f 153/21/1 152/22/1 139/23/1 140/24/1
f 154/25/1 153/26/1 140/27/1 141/28/1
f 155/21/1 154/22/1 141/23/1 142/24/1
f 156/73/1 155/74/1 142/75/1 143/76/1
f 157/25/1 158/26/1 149/27/1 150/28/1
f 159/25/1 157/26/1 150/27/1 151/28/1

g mesh_0002
f 29/77/1 27/78/1 1/79/1 5/80/1
f 38/77/1 37/78/1 21/79/1 23/80/1
f 70/81/1 69/82/1 56/83/1 57/84/1
f 71/85/1 70/86/1 57/87/1 58/88/1
f 72/89/1 71/90/1 58/91/1 59/92/1
f 73/93/1 72/94/1 59/95/1 60/96/1
f 74/97/1 73/98/1 60/99/1 61/100/1
f 75/101/1 74/102/1 61/103/1 62/104/1
f 76/101/1 75/102/1 62/103/1 63/104/1
f 77/105/1 76/106/1 63/107/1 64/108/1
f 81/109/1 79/110/1 66/111/1 68/112/1
f 83/113/1 82/114/1 69/115/1 70/116/1
f 84/113/1 83/114/1 70/115/1 71/116/1
f 85/113/1 84/114/1 71/115/1 72/116/1
f 86/113/1 85/114/1 72/115/1 73/116/1
f 87/117/1 86/118/1 73/119/1 74/120/1
f 88/121/1 87/122/1 74/123/1 75/124/1
f 89/125/1 88/126/1 75/127/1 76/128/1
f 90/129/1 89/130/1 76/131/1 77/132/1
f 96/113/1 95/114/1 82/115/1 83/116/1
f 97/113/1 96/114/1 83/115/1 84/116/1
f 98/113/1 97/114/1 84/115/1 85/116/1
f 99/133/1 98/134/1 85/135/1 86/136/1
f 100/117/1 99/118/1 86/119/1 87/120/1
f 101/137/1 100/138/1 87/139/1 88/140/1
f 102/141/1 101/142/1 88/143/1 89/144/1
f 103/129/1 102/130/1 89/131/1 90/132/1
f 109/113/1 108/114/1 95/115/1 96/116/1
f 110/113/1 109/114/1 96/115/1 97/116/1
f 112/109/1 111/110/1 98/111/1 99/112/1
f 113/145/1 112/146/1 99/147/1 100/148/1
f 114/149/1 113/150/1 100/151/1 101/152/1
f 115/149/1 114/150/1 101/151/1 102/152/1
f 116/153/1 115/154/1 102/155/1 103/156/1
f 126/25/1 125/26/1 112/27/1 113/28/1
f 127/25/1 126/26/1 113/27/1 114/28/1
f 128/25/1 127/26/1 114/27/1 115/28/1
f 129/157/1 128/158/1 115/159/1 116/160/1
f 139/25/1 138/26/1 125/27/1 126/28/1
f 140/25/1 139/26/1 126/27/1 127/28/1
f 141/25/1 140/26/1 127/27/1 128/28/1

g mesh_0003
f 68/161/1 66/162/1 53/163/1 55/164/1
f 99/165/1 98/166/1 85/167/1 86/168/1
f 146/169/1 144/170/1 131/171/1 133/172/1
f 147/173/1 146/174/1 133/175/1 134/176/1
f 148/173/1 147/174/1 134/175/1 135/176/1
f 149/177/1 148/178/1 135/179/1 136/180/1
f 152/169/1 151/170/1 138/171/1 139/172/1
f 153/173/1 152/174/1 139/175/1 140/176/1
f 154/173/1 153/174/1 140/175/1 141/176/1
f 155/177/1 154/178/1 141/179/1 142/180/1
f 158/181/1 160/182/1 148/183/1 149/184/1
f 161/185/1 159/186/1 151/187/1 152/188/1

g mesh_0004
f 55/189/1 53/190/1 40/191/1 42/192/1
f 56/189/1 55/190/1 42/191/1 43/192/1
f 57/189/1 56/190/1 43/191/1 44/192/1
f 66/189/1 67/190/1 54/191/1 53/192/1
f 68/189/1 66/190/1 53/191/1 55/192/1
f 70/189/1 69/190/1 56/191/1 57/192/1
f 79/189/1 80/190/1 67/191/1 66/192/1
f 83/189/1 82/190/1 69/191/1 70/192/1
f 86/189/1 85/190/1 72/191/1 73/192/1
f 92/189/1 93/190/1 80/191/1 79/192/1
f 96/189/1 95/190/1 82/191/1 83/192/1
f 97/189/1 96/190/1 83/191/1 84/192/1
f 98/189/1 97/190/1 84/191/1 85/192/1
f 99/189/1 98/190/1 85/191/1 86/192/1
f 100/189/1 99/190/1 86/191/1 87/192/1
f 105/189/1 106/190/1 93/191/1 92/192/1
f 109/189/1 108/190/1 95/191/1 96/192/1
f 110/189/1 109/190/1 96/191/1 97/192/1
f 113/189/1 112/190/1 99/191/1 100/192/1
f 114/189/1 113/190/1 100/191/1 101/192/1
f 115/189/1 114/190/1 101/191/1 102/192/1
f 116/189/1 115/190/1 102/191/1 103/192/1
f 118/189/1 119/190/1 106/191/1 105/192/1
f 129/189/1 128/190/1 115/191/1 116/192/1
f 130/189/1 129/190/1 116/191/1 117/192/1
f 131/189/1 132/190/1 119/191/1 118/192/1
f 143/189/1 142/190/1 129/191/1 130/192/1
f 144/189/1 145/190/1 132/191/1 131/192/1
f 146/189/1 144/190/1 131/191/1 133/192/1
f 147/189/1 146/190/1 133/191/1 134/192/1
f 148/189/1 147/190/1 134/191/1 135/192/1
f 149/189/1 148/190/1 135/191/1 136/192/1
f 152/189/1 151/190/1 138/191/1 139/192/1
f 153/189/1 152/190/1 139/191/1 140/192/1
f 154/189/1 153/190/1 140/191/1 141/192/1
f 155/189/1 154/190/1 141/191/1 142/192/1
f 156/189/1 155/190/1 142/191/1 143/192/1
f 158/189/1 160/190/1 148/191/1 149/192/1
f 161/189/1 159/190/1 151/191/1 152/192/1
f 162/189/1 163/190/1 160/191/1 158/192/1
f 164/189/1 162/190/1 158/191/1 157/192/1
f 165/189/1 164/190/1 157/191/1 159/192/1
f 166/189/1 165/190/1 159/191/1 161/192/1

