# Wavefront OBJ file automatically generated by Tiled2Unity

# Vertices (Count = 123)
v -29 -12 0
v -30 -12 0
v -30 -11 0
v -29 -11 0
v -28 -12 0
v -28 -11 0
v -27 -12 0
v -27 -11 0
v -26 -12 0
v -26 -11 0
v -25 -12 0
v -25 -11 0
v -24 -12 0
v -24 -11 0
v -23 -12 0
v -23 -11 0
v -22 -12 0
v -22 -11 0
v -21 -12 0
v -21 -11 0
v -20 -12 0
v -20 -11 0
v -29 -13 0
v -30 -13 0
v -28 -13 0
v -27 -13 0
v -26 -13 0
v -25 -13 0
v -24 -13 0
v -23 -13 0
v -22 -13 0
v -21 -13 0
v -20 -13 0
v -29 -14 0
v -30 -14 0
v -28 -14 0
v -27 -14 0
v -26 -14 0
v -25 -14 0
v -24 -14 0
v -23 -14 0
v -22 -14 0
v -21 -14 0
v -20 -14 0
v -29 -15 0
v -30 -15 0
v -28 -15 0
v -27 -15 0
v -26 -15 0
v -25 -15 0
v -24 -15 0
v -23 -15 0
v -22 -15 0
v -21 -15 0
v -20 -15 0
v -29 -16 0
v -30 -16 0
v -28 -16 0
v -27 -16 0
v -26 -16 0
v -25 -16 0
v -24 -16 0
v -23 -16 0
v -22 -16 0
v -21 -16 0
v -20 -16 0
v -29 -17 0
v -30 -17 0
v -28 -17 0
v -27 -17 0
v -26 -17 0
v -25 -17 0
v -24 -17 0
v -23 -17 0
v -22 -17 0
v -21 -17 0
v -20 -17 0
v -29 -18 0
v -30 -18 0
v -28 -18 0
v -27 -18 0
v -26 -18 0
v -25 -18 0
v -24 -18 0
v -23 -18 0
v -22 -18 0
v -21 -18 0
v -20 -18 0
v -29 -19 0
v -30 -19 0
v -28 -19 0
v -27 -19 0
v -26 -19 0
v -25 -19 0
v -24 -19 0
v -23 -19 0
v -22 -19 0
v -21 -19 0
v -20 -19 0
v -29 -20 0
v -30 -20 0
v -28 -20 0
v -27 -20 0
v -26 -20 0
v -25 -20 0
v -24 -20 0
v -23 -20 0
v -22 -20 0
v -21 -20 0
v -20 -20 0
v -25 -21 0
v -26 -21 0
v -29 -21 0
v -30 -21 0
v -28 -21 0
v -27 -21 0
v -24 -21 0
v -23 -21 0
v -22 -21 0
v -21 -21 0
v -20 -21 0
v -25 -22 0
v -26 -22 0

# Texture cooridinates (Count = 120)
vt 0.2985557 0.5817528
vt 0.3150806 0.5817528
vt 0.3150806 0.6121635
vt 0.2985557 0.6121635
vt 0.2458698 0.5817528
vt 0.2623947 0.5817528
vt 0.2623947 0.6121635
vt 0.2458698 0.6121635
vt 0.2809938 0.5817528
vt 0.2975186 0.5817528
vt 0.2975186 0.6121635
vt 0.2809938 0.6121635
vt 0.2634318 0.5494334
vt 0.2799567 0.5494334
vt 0.2799567 0.5798442
vt 0.2634318 0.5798442
vt 0.1229359 0.8079885
vt 0.1394608 0.8079885
vt 0.1394608 0.8383994
vt 0.1229359 0.8383994
vt 0.1404979 0.2585589
vt 0.1570228 0.2585589
vt 0.1570228 0.2889697
vt 0.1404979 0.2889697
vt 0.2283078 0.517114
vt 0.2448327 0.517114
vt 0.2448327 0.5475248
vt 0.2283078 0.5475248
vt 0.7024813 0.2585589
vt 0.7190062 0.2585589
vt 0.7190062 0.2889697
vt 0.7024813 0.2889697
vt 0.6673574 0.2585589
vt 0.6838823 0.2585589
vt 0.6838823 0.2889697
vt 0.6673574 0.2889697
vt 0.1404979 0.9372661
vt 0.1570228 0.9372661
vt 0.1570228 0.9676769
vt 0.1404979 0.9676769
vt 0.2107458 0.6463915
vt 0.2272707 0.6463915
vt 0.2272707 0.6768024
vt 0.2107458 0.6768024
vt 0.1931838 0.6463915
vt 0.2097087 0.6463915
vt 0.2097087 0.6768024
vt 0.1931838 0.6768024
vt 0.1756219 0.6463915
vt 0.1921467 0.6463915
vt 0.1921467 0.6768024
vt 0.1756219 0.6768024
vt 0.2107458 0.6140721
vt 0.2272707 0.6140721
vt 0.2272707 0.644483
vt 0.2107458 0.644483
vt 0.1931838 0.6140721
vt 0.2097087 0.6140721
vt 0.2097087 0.644483
vt 0.1931838 0.644483
vt 0.1756219 0.6140721
vt 0.1921467 0.6140721
vt 0.1921467 0.644483
vt 0.1756219 0.644483
vt 0.2107458 0.5817528
vt 0.2272707 0.5817528
vt 0.2272707 0.6121635
vt 0.2107458 0.6121635
vt 0.1931838 0.5817528
vt 0.2097087 0.5817528
vt 0.2097087 0.6121635
vt 0.1931838 0.6121635
vt 0.1756219 0.5817528
vt 0.1921467 0.5817528
vt 0.1921467 0.6121635
vt 0.1756219 0.6121635
vt 0.5092995 0.6463915
vt 0.5258244 0.6463915
vt 0.5258244 0.6768024
vt 0.5092995 0.6768024
vt 0.5619855 0.8726273
vt 0.5785104 0.8726273
vt 0.5785104 0.9030381
vt 0.5619855 0.9030381
vt 0.5092995 0.8726273
vt 0.5258244 0.8726273
vt 0.5258244 0.9030381
vt 0.5092995 0.9030381
vt 0.9483491 0.6140721
vt 0.964874 0.6140721
vt 0.964874 0.644483
vt 0.9483491 0.644483
vt 0.5092995 0.8403079
vt 0.5258244 0.8403079
vt 0.5258244 0.8707187
vt 0.5092995 0.8707187
vt 0.4917375 0.6787109
vt 0.5082625 0.6787109
vt 0.5082625 0.7091218
vt 0.4917375 0.7091218
vt 0.3863657 0.8726273
vt 0.4028905 0.8726273
vt 0.4028905 0.9030381
vt 0.3863657 0.9030381
vt 0.3512417 0.7756691
vt 0.3677666 0.7756691
vt 0.3677666 0.8060799
vt 0.3512417 0.8060799
vt 0.3336797 0.7756691
vt 0.3502046 0.7756691
vt 0.3502046 0.8060799
vt 0.3336797 0.8060799
vt 0.3688037 0.8726273
vt 0.3853286 0.8726273
vt 0.3853286 0.9030381
vt 0.3688037 0.9030381
vt 6.103516E-05 0.500061
vt 0.499939 0.500061
vt 0.499939 0.999939
vt 6.103516E-05 0.999939

# Normal
vn 0 0 -1

# Groups (Count = 4)

g mesh_0001
f 1/1/1 2/2/1 3/3/1 4/4/1
f 5/5/1 1/6/1 4/7/1 6/8/1
f 7/5/1 5/6/1 6/7/1 8/8/1
f 9/5/1 7/6/1 8/7/1 10/8/1
f 11/5/1 9/6/1 10/7/1 12/8/1
f 13/5/1 11/6/1 12/7/1 14/8/1
f 15/5/1 13/6/1 14/7/1 16/8/1
f 17/5/1 15/6/1 16/7/1 18/8/1
f 19/5/1 17/6/1 18/7/1 20/8/1
f 21/9/1 19/10/1 20/11/1 22/12/1
f 23/13/1 24/14/1 2/15/1 1/16/1
f 25/17/1 23/18/1 1/19/1 5/20/1
f 26/17/1 25/18/1 5/19/1 7/20/1
f 27/17/1 26/18/1 7/19/1 9/20/1
f 28/17/1 27/18/1 9/19/1 11/20/1
f 29/17/1 28/18/1 11/19/1 13/20/1
f 30/17/1 29/18/1 13/19/1 15/20/1
f 31/17/1 30/18/1 15/19/1 17/20/1
f 32/17/1 31/18/1 17/19/1 19/20/1
f 33/13/1 32/14/1 19/15/1 21/16/1
f 34/13/1 35/14/1 24/15/1 23/16/1
f 36/17/1 34/18/1 23/19/1 25/20/1
f 37/17/1 36/18/1 25/19/1 26/20/1
f 38/17/1 37/18/1 26/19/1 27/20/1
f 39/17/1 38/18/1 27/19/1 28/20/1
f 40/17/1 39/18/1 28/19/1 29/20/1
f 41/17/1 40/18/1 29/19/1 30/20/1
f 42/17/1 41/18/1 30/19/1 31/20/1
f 43/17/1 42/18/1 31/19/1 32/20/1
f 44/13/1 43/14/1 32/15/1 33/16/1
f 45/13/1 46/14/1 35/15/1 34/16/1
f 47/17/1 45/18/1 34/19/1 36/20/1
f 48/17/1 47/18/1 36/19/1 37/20/1
f 49/17/1 48/18/1 37/19/1 38/20/1
f 50/17/1 49/18/1 38/19/1 39/20/1
f 51/17/1 50/18/1 39/19/1 40/20/1
f 52/17/1 51/18/1 40/19/1 41/20/1
f 53/17/1 52/18/1 41/19/1 42/20/1
f 54/17/1 53/18/1 42/19/1 43/20/1
f 55/13/1 54/14/1 43/15/1 44/16/1
f 56/13/1 57/14/1 46/15/1 45/16/1
f 58/21/1 56/22/1 45/23/1 47/24/1
f 59/21/1 58/22/1 47/23/1 48/24/1
f 60/21/1 59/22/1 48/23/1 49/24/1
f 61/21/1 60/22/1 49/23/1 50/24/1
f 62/21/1 61/22/1 50/23/1 51/24/1
f 63/21/1 62/22/1 51/23/1 52/24/1
f 64/21/1 63/22/1 52/23/1 53/24/1
f 65/21/1 64/22/1 53/23/1 54/24/1
f 66/13/1 65/14/1 54/15/1 55/16/1
f 67/25/1 68/26/1 57/27/1 56/28/1
f 69/21/1 67/22/1 56/23/1 58/24/1
f 70/21/1 69/22/1 58/23/1 59/24/1
f 71/21/1 70/22/1 59/23/1 60/24/1
f 72/21/1 71/22/1 60/23/1 61/24/1
f 73/21/1 72/22/1 61/23/1 62/24/1
f 74/21/1 73/22/1 62/23/1 63/24/1
f 75/21/1 74/22/1 63/23/1 64/24/1
f 76/21/1 75/22/1 64/23/1 65/24/1
f 77/25/1 76/26/1 65/27/1 66/28/1
f 78/29/1 79/30/1 68/31/1 67/32/1
f 80/21/1 78/22/1 67/23/1 69/24/1
f 81/21/1 80/22/1 69/23/1 70/24/1
f 82/21/1 81/22/1 70/23/1 71/24/1
f 83/21/1 82/22/1 71/23/1 72/24/1
f 84/21/1 83/22/1 72/23/1 73/24/1
f 85/21/1 84/22/1 73/23/1 74/24/1
f 86/21/1 85/22/1 74/23/1 75/24/1
f 87/21/1 86/22/1 75/23/1 76/24/1
f 88/33/1 87/34/1 76/35/1 77/36/1
f 89/29/1 90/30/1 79/31/1 78/32/1
f 91/21/1 89/22/1 78/23/1 80/24/1
f 92/21/1 91/22/1 80/23/1 81/24/1
f 93/21/1 92/22/1 81/23/1 82/24/1
f 94/21/1 93/22/1 82/23/1 83/24/1
f 95/21/1 94/22/1 83/23/1 84/24/1
f 96/21/1 95/22/1 84/23/1 85/24/1
f 97/21/1 96/22/1 85/23/1 86/24/1
f 98/21/1 97/22/1 86/23/1 87/24/1
f 99/33/1 98/34/1 87/35/1 88/36/1
f 100/29/1 101/30/1 90/31/1 89/32/1
f 102/21/1 100/22/1 89/23/1 91/24/1
f 103/21/1 102/22/1 91/23/1 92/24/1
f 104/21/1 103/22/1 92/23/1 93/24/1
f 105/21/1 104/22/1 93/23/1 94/24/1
f 106/21/1 105/22/1 94/23/1 95/24/1
f 107/21/1 106/22/1 95/23/1 96/24/1
f 108/21/1 107/22/1 96/23/1 97/24/1
f 109/21/1 108/22/1 97/23/1 98/24/1
f 110/33/1 109/34/1 98/35/1 99/36/1
f 111/37/1 112/38/1 104/39/1 105/40/1

g mesh_0002
f 70/41/1 69/42/1 58/43/1 59/44/1
f 71/45/1 70/46/1 59/47/1 60/48/1
f 72/45/1 71/46/1 60/47/1 61/48/1
f 73/45/1 72/46/1 61/47/1 62/48/1
f 74/45/1 73/46/1 62/47/1 63/48/1
f 75/49/1 74/50/1 63/51/1 64/52/1
f 81/53/1 80/54/1 69/55/1 70/56/1
f 82/57/1 81/58/1 70/59/1 71/60/1
f 83/57/1 82/58/1 71/59/1 72/60/1
f 84/57/1 83/58/1 72/59/1 73/60/1
f 85/57/1 84/58/1 73/59/1 74/60/1
f 86/61/1 85/62/1 74/63/1 75/64/1
f 92/65/1 91/66/1 80/67/1 81/68/1
f 93/69/1 92/70/1 81/71/1 82/72/1
f 94/69/1 93/70/1 82/71/1 83/72/1
f 95/69/1 94/70/1 83/71/1 84/72/1
f 96/69/1 95/70/1 84/71/1 85/72/1
f 97/73/1 96/74/1 85/75/1 86/76/1

g mesh_0003
f 40/77/1 39/78/1 28/79/1 29/80/1
f 47/81/1 45/82/1 34/83/1 36/84/1
f 54/85/1 53/86/1 42/87/1 43/88/1
f 64/89/1 63/90/1 52/91/1 53/92/1
f 65/93/1 64/94/1 53/95/1 54/96/1
f 76/97/1 75/98/1 64/99/1 65/100/1
f 82/101/1 81/102/1 70/103/1 71/104/1
f 83/105/1 82/106/1 71/107/1 72/108/1
f 84/109/1 83/110/1 72/111/1 73/112/1
f 85/113/1 84/114/1 73/115/1 74/116/1

g mesh_0004
f 45/117/1 46/118/1 35/119/1 34/120/1
f 47/117/1 45/118/1 34/119/1 36/120/1
f 48/117/1 47/118/1 36/119/1 37/120/1
f 49/117/1 48/118/1 37/119/1 38/120/1
f 50/117/1 49/118/1 38/119/1 39/120/1
f 51/117/1 50/118/1 39/119/1 40/120/1
f 52/117/1 51/118/1 40/119/1 41/120/1
f 56/117/1 57/118/1 46/119/1 45/120/1
f 64/117/1 63/118/1 52/119/1 53/120/1
f 65/117/1 64/118/1 53/119/1 54/120/1
f 67/117/1 68/118/1 57/119/1 56/120/1
f 76/117/1 75/118/1 64/119/1 65/120/1
f 77/117/1 76/118/1 65/119/1 66/120/1
f 78/117/1 79/118/1 68/119/1 67/120/1
f 82/117/1 81/118/1 70/119/1 71/120/1
f 83/117/1 82/118/1 71/119/1 72/120/1
f 84/117/1 83/118/1 72/119/1 73/120/1
f 85/117/1 84/118/1 73/119/1 74/120/1
f 88/117/1 87/118/1 76/119/1 77/120/1
f 89/117/1 90/118/1 79/119/1 78/120/1
f 99/117/1 98/118/1 87/119/1 88/120/1
f 100/117/1 101/118/1 90/119/1 89/120/1
f 110/117/1 109/118/1 98/119/1 99/120/1
f 113/117/1 114/118/1 101/119/1 100/120/1
f 115/117/1 113/118/1 100/119/1 102/120/1
f 116/117/1 115/118/1 102/119/1 103/120/1
f 112/117/1 116/118/1 103/119/1 104/120/1
f 117/117/1 111/118/1 105/119/1 106/120/1
f 118/117/1 117/118/1 106/119/1 107/120/1
f 119/117/1 118/118/1 107/119/1 108/120/1
f 120/117/1 119/118/1 108/119/1 109/120/1
f 121/117/1 120/118/1 109/119/1 110/120/1
f 122/117/1 123/118/1 112/119/1 111/120/1

